<?xml version="1.0" encoding="utf-8"?>
<!-- Generator: Adobe Illustrator 19.0.1, SVG Export Plug-In . SVG Version: 6.00 Build 0)  -->
<svg version="1.1" id="Слой_1" xmlns="http://www.w3.org/2000/svg" xmlns:xlink="http://www.w3.org/1999/xlink" x="0px" y="0px"
	 viewBox="-683 -6.2 612 262.2" style="enable-background:new -683 -6.2 612 262.2;" xml:space="preserve">
<style type="text/css">
	.st0{fill:none;stroke:#000000;stroke-width:10;stroke-miterlimit:10;}
</style>
<g>
	<g>
		<line class="st0" x1="-683" y1="49.7" x2="-457.3" y2="49.7"/>
		<line class="st0" x1="-683" y1="124.9" x2="-457.3" y2="124.9"/>
		<line class="st0" x1="-683" y1="200.1" x2="-457.3" y2="200.1"/>
	</g>
	<g>
		<path d="M-307.6,100.3h13.7l12.3,34.2l0,0l12.3-34.2h13.7v48.5h-8.9v-39l0,0l-15,39h-6.2l-14.4-39l0,0v39h-8.2v-48.5H-307.6z"/>
		<path d="M-239.2,100.3h32.1v7.5h-23.2v12.3h22.6v7.5h-22.6v13.7h24.6v7.5h-33.5V100.3L-239.2,100.3z"/>
		<path d="M-192.7,100.3h8.9v19.8h22.6v-19.8h8.9v48.5h-8.9v-21.2h-22.6v21.2h-8.9V100.3z"/>
		<path d="M-119.5,127.7h-8.9v21.2h-8.9v-48.5h8.9v19.8h8.9c1.4-12.3,10.9-21.2,23.9-21.2c14.4,0,24.6,10.9,24.6,25.3
			c0,14.4-9.6,25.3-24.6,25.3C-109.3,150.2-118.9,140.6-119.5,127.7z M-80.6,124.9c0-9.6-5.5-17.8-15-17.8s-15,8.2-15,17.8
			s5.5,17.8,15,17.8C-86,142.7-80.6,133.8-80.6,124.9z"/>
	</g>
</g>
</svg>
